<svg xmlns="http://www.w3.org/2000/svg" style="display: none;">
<symbol id="brand-logo" viewBox="0 0 105 42">
    <g>
      <path class="part-a" d="M73.648 17.86v2.278h-.071c-.582-1.282-2.29-2.512-4.55-2.512-2.938 0-5.947 2.14-5.947 6.28 0 4.139 3.01 6.28 5.947 6.28 2.26 0 3.968-1.231 4.55-2.512h.071v2.278h1.955V17.86h-1.955ZM69.35 28.394c-2.147 0-4.315-1.49-4.315-4.49s2.168-4.489 4.315-4.489c2.147 0 4.365 1.51 4.365 4.49 0 2.979-2.172 4.49-4.365 4.49ZM88.338 13.44v6.698h-.062c-.59-1.282-2.294-2.512-4.55-2.512-2.946 0-5.956 2.14-5.956 6.28 0 4.139 3.01 6.28 5.956 6.28 2.256 0 3.96-1.231 4.55-2.512h.062v2.278h1.96v-16.51h-1.96v-.001Zm-4.29 14.955c-2.147 0-4.319-1.49-4.319-4.49s2.172-4.489 4.32-4.489c2.147 0 4.365 1.51 4.365 4.49 0 2.979-2.172 4.49-4.365 4.49ZM103.037 13.44v6.698h-.071c-.582-1.282-2.285-2.512-4.545-2.512-2.942 0-5.952 2.14-5.952 6.28 0 4.139 3.01 6.28 5.952 6.28 2.26 0 3.963-1.231 4.545-2.512h.071v2.278H105v-16.51h-1.963v-.001Zm-4.29 14.955c-2.147 0-4.314-1.49-4.314-4.49s2.167-4.489 4.314-4.489c2.147 0 4.361 1.51 4.361 4.49 0 2.979-2.168 4.49-4.36 4.49ZM33.844 35.999c0-.88-.465-1.357-1.146-1.357-.681 0-1.207.476-1.207 1.357v3.524h-1.6v-6.191h1.6v.798c.335-.524.908-.917 1.78-.917.764 0 1.433.321 1.815 1.036.358-.571 1.04-1.036 2.054-1.036 1.314 0 2.27.821 2.27 2.715v3.595h-1.613V36c0-.88-.454-1.357-1.146-1.357-.693 0-1.207.476-1.207 1.357v3.524h-1.6V36ZM40.317 36.428c0-2.143 1.54-3.215 2.986-3.215 1.11 0 1.827.607 1.982.953h.036v-.834h1.6v6.191h-1.6v-.833h-.036c-.155.345-.872.953-1.982.953-1.445 0-2.986-1.072-2.986-3.215Zm3.308 1.786c.896 0 1.732-.62 1.732-1.786 0-1.167-.836-1.786-1.732-1.786-.895 0-1.732.631-1.732 1.786s.836 1.786 1.732 1.786ZM48.14 33.332h1.6v.846c.346-.548.966-.965 1.898-.965 1.278 0 2.353.786 2.353 2.667v3.643h-1.6v-3.38c0-.906-.49-1.501-1.326-1.501-.836 0-1.325.595-1.325 1.5v3.381h-1.6v-6.191ZM54.91 36.428c0-2.143 1.541-3.215 2.986-3.215 1.11 0 1.828.607 1.983.953h.035v-.834h1.6v6.191h-1.6v-.833h-.035c-.155.345-.872.953-1.983.953-1.445 0-2.985-1.072-2.985-3.215Zm3.309 1.786c.895 0 1.731-.62 1.731-1.786 0-1.167-.836-1.786-1.731-1.786-.896 0-1.732.631-1.732 1.786s.836 1.786 1.732 1.786ZM63.963 41.619V40.32c.286.19.908.346 1.517.346 1.194 0 1.958-.56 1.958-1.501v-.476h-.071c-.156.345-.848.952-1.947.952-1.433 0-2.986-1.072-2.986-3.214 0-2.143 1.553-3.215 2.986-3.215 1.099 0 1.791.607 1.947.953h.071v-.834h1.6v5.727c0 2.37-1.862 2.941-3.272 2.941-.716 0-1.433-.143-1.803-.381Zm1.78-3.405c.907 0 1.732-.62 1.732-1.786 0-1.167-.825-1.786-1.732-1.786-.908 0-1.732.631-1.732 1.786s.835 1.786 1.732 1.786ZM69.959 36.428c0-2.084 1.552-3.215 3.14-3.215 1.589 0 3.368 1.107 3.022 3.834h-4.646c.227.845.968 1.285 1.9 1.285.608 0 1.146-.166 1.6-.559l.728.774c-.513.643-1.41 1.095-2.508 1.095-1.707 0-3.236-1.155-3.236-3.214Zm4.74-.548c-.095-.88-.836-1.322-1.588-1.322-.753 0-1.457.429-1.66 1.322H74.7ZM81.03 35.999c0-.88-.467-1.357-1.148-1.357-.68 0-1.206.476-1.206 1.357v3.524h-1.6v-6.191h1.6v.798c.335-.524.908-.917 1.78-.917.764 0 1.433.321 1.815 1.036.358-.571 1.039-1.036 2.054-1.036 1.314 0 2.27.821 2.27 2.715v3.595h-1.613V36c0-.88-.454-1.357-1.147-1.357-.693 0-1.206.476-1.206 1.357v3.524h-1.6V36ZM87.502 36.428c0-2.084 1.553-3.215 3.14-3.215 1.59 0 3.369 1.107 3.023 3.834h-4.646c.227.845.967 1.285 1.899 1.285.609 0 1.146-.166 1.6-.559l.729.774c-.514.643-1.41 1.095-2.508 1.095-1.708 0-3.236-1.155-3.236-3.214Zm4.742-.548c-.096-.88-.837-1.322-1.59-1.322-.752 0-1.456.429-1.659 1.322h3.248ZM94.62 33.332h1.6v.846c.347-.548.967-.965 1.899-.965 1.278 0 2.353.786 2.353 2.667v3.643h-1.6v-3.38c0-.906-.49-1.501-1.326-1.501-.836 0-1.326.595-1.326 1.5v3.381h-1.6v-6.191ZM102.096 37.809v-3.203h-.884v-1.274h.884v-1.583h1.612v1.583h1.278v1.274h-1.278v2.941c0 .322.179.631.705.631.143 0 .358-.024.585-.095v1.226c-.239.214-.693.286-1.087.286-1.05 0-1.815-.512-1.815-1.786ZM25.338 17.86v1.627h-.072c-.305-.676-1.703-1.861-3.87-1.861a5.74 5.74 0 0 0-1.67.246c-2.223.66-4.16 2.675-4.16 6.034 0 1.54.405 2.795 1.062 3.768 1.126 1.673 2.984 2.512 4.767 2.512 2.168 0 3.566-1.186 3.871-1.861h.072v1.627h3.122V17.86h-3.122Zm-3.31 9.534c-1.754 0-3.387-1.23-3.387-3.488s1.633-3.489 3.386-3.489c1.754 0 3.378 1.21 3.378 3.489 0 2.278-1.628 3.488-3.378 3.488ZM30.841 13.44v16.512h3.127V13.44H30.84ZM44.653 17.86v6.605c0 1.765-.98 2.929-2.591 2.929-1.611 0-2.59-1.164-2.59-2.93V17.86h-3.123v7.114c0 3.677 2.097 5.212 4.591 5.212 1.821 0 3.03-.813 3.713-1.886v1.653h3.126V17.859h-3.126ZM55.71 17.626c-3.105 0-6.14 2.207-6.14 6.28 0 4.072 2.984 6.28 6.324 6.28 2.148 0 3.897-.885 4.897-2.141l-1.419-1.51c-.887.767-1.937 1.093-3.13 1.093-1.817 0-3.265-.86-3.708-2.512h9.073c.678-5.329-2.825-7.49-5.897-7.49Zm-3.219 5.211c.394-1.748 1.792-2.583 3.24-2.583 1.448 0 2.917.86 3.1 2.583h-6.34Z" />
      <path class="part-b" d="M53.927 1.945C36.55-3.717 18.787 3.242 10.195 19.453c-.389.78-1.406 2.7-1.699 3.48-.205.472-.557 1.319-.82 1.949l-.754-2.045-3.469-9.396H0l6.374 16.51h3.918c.26-.88.707-2.524.958-3.308.197-.555.616-1.686.812-2.241 1.524-4.052 3.725-7.95 6.5-11.27C28.89.309 48.867-1.702 62.645 6.785c2.788 1.736 5.307 3.951 7.232 6.655-3.603-5.666-9.634-9.417-15.95-11.495Z" />
    </g>
    </symbol>
</svg>
